<?xml version="1.0" encoding="iso-8859-1"?>
<!-- Generator: Adobe Illustrator 19.0.0, SVG Export Plug-In . SVG Version: 6.00 Build 0)  -->
<svg version="1.1" id="Layer_1" xmlns="http://www.w3.org/2000/svg" xmlns:xlink="http://www.w3.org/1999/xlink" x="0px" y="0px"
	 viewBox="0 0 511.978 511.978" style="enable-background:new 0 0 511.978 511.978;" xml:space="preserve">
<path style="fill:#E6E9ED;" d="M463.98,234.618c-5.687,0-11.187,1.508-15.999,4.289c-4.828-2.781-10.327-4.289-15.999-4.289
	c-5.688,0-11.187,1.508-15.999,4.289c-4.828-2.781-10.328-4.289-16-4.289c-5.688,0-11.188,1.508-16,4.289
	c-4.827-2.781-10.327-4.289-15.999-4.289c-5.687,0-11.187,1.508-15.999,4.289c-4.828-2.781-10.328-4.289-16-4.289
	c-5.687,0-11.187,1.508-15.998,4.289c-4.828-2.781-10.327-4.289-15.999-4.289c-5.688,0-11.188,1.508-16,4.289
	c-4.828-2.781-10.328-4.289-16-4.289c-5.687,0-11.187,1.508-15.999,4.289c-4.828-2.781-10.328-4.289-16-4.289
	c-5.687,0-11.187,1.508-16,4.289c-4.827-2.781-10.327-4.289-15.999-4.289c-5.688,0-11.188,1.508-16,4.289
	c-4.828-2.781-10.328-4.289-16-4.289c-5.688,0-11.187,1.508-16,4.289c-4.828-2.781-10.327-4.289-15.999-4.289
	c-5.688,0-11.187,1.508-16,4.289c-4.828-2.781-10.328-4.289-16-4.289c-5.687,0-11.187,1.508-16,4.289
	c-4.828-2.781-10.328-4.289-16-4.289c-5.687,0-11.187,1.508-15.999,4.289c-4.828-2.781-10.328-4.289-16-4.289
	c-17.656,0-31.999,14.352-31.999,31.999c0,17.647,14.343,31.991,31.999,31.991c5.671,0,11.171-1.5,16-4.281
	c4.812,2.781,10.312,4.281,15.999,4.281c5.672,0,11.172-1.5,16-4.281c4.812,2.781,10.312,4.281,16,4.281
	c5.672,0,11.171-1.5,16-4.281c4.812,2.781,10.312,4.281,16,4.281c5.672,0,11.171-1.5,15.999-4.281
	c4.812,2.781,10.312,4.281,16,4.281c5.671,0,11.171-1.5,16-4.281c4.812,2.781,10.312,4.281,16,4.281
	c5.671,0,11.171-1.5,15.999-4.281c4.812,2.781,10.312,4.281,16,4.281c5.672,0,11.172-1.5,16-4.281
	c4.812,2.781,10.312,4.281,15.999,4.281c5.672,0,11.172-1.5,16-4.281c4.812,2.781,10.312,4.281,16,4.281
	c5.672,0,11.171-1.5,15.999-4.281c4.812,2.781,10.312,4.281,15.998,4.281c5.672,0,11.172-1.5,16-4.281
	c4.812,2.781,10.312,4.281,15.999,4.281c5.672,0,11.172-1.5,15.999-4.281c4.812,2.781,10.312,4.281,16,4.281
	c5.672,0,11.172-1.5,16-4.281c4.812,2.781,10.312,4.281,15.999,4.281c5.672,0,11.171-1.5,15.999-4.281
	c4.812,2.781,10.312,4.281,15.999,4.281c17.641,0,31.999-14.344,31.999-31.991S481.621,234.618,463.98,234.618z"/>
<path style="fill:#EC5564;" d="M490.635,266.617H21.327c-5.891,0-10.672,4.773-10.672,10.664v63.996c0,17.641,14.359,32,31.999,32
	h426.654c17.64,0,31.998-14.359,31.998-32v-63.996C501.306,271.39,496.526,266.617,490.635,266.617z"/>
<path style="fill:#DA4453;" d="M501.306,287.952H10.655c-5.89,0-10.655-4.78-10.655-10.671s4.766-10.664,10.655-10.664h490.651
	c5.891,0,10.672,4.773,10.672,10.664S507.197,287.952,501.306,287.952z"/>
<path style="fill:#F6BB42;" d="M341.313,74.626c-27.998,0-42.653,23.498-42.653,46.708c0,14.562,7.688,146.4,8.016,152.01
	c0.328,5.641,4.999,10.047,10.655,10.047h47.967c5.64,0,10.312-4.406,10.64-10.047c0.328-5.609,8.015-137.447,8.015-152.01
	C383.952,98.124,369.312,74.626,341.313,74.626z M348.813,124.826c-4.172,4.172-10.922,4.172-15.094,0
	c-4.155-4.164-4.155-10.913,0-15.077c4.172-4.172,10.922-4.172,15.094,0C352.969,113.913,352.969,120.662,348.813,124.826z"/>
<path style="fill:#FFCE54;" d="M487.948,373.605c-5.655-40.249-19.983-73.919-41.404-97.34
	c-25.561-27.952-60.967-42.116-105.23-42.116c-44.278,0-79.684,14.164-105.229,42.116c-21.437,23.421-35.749,57.091-41.42,97.34
	c-4.219,29.998-2.234,53.061-2.141,54.029c0.484,5.499,5.093,9.718,10.625,9.718h276.333c5.53,0,10.124-4.219,10.624-9.718
	C490.198,426.666,492.167,403.603,487.948,373.605z"/>
<path style="fill:#F6BB42;" d="M192.008,415.947c0.109,7,0.469,11.281,0.516,11.688c0.484,5.499,5.093,9.718,10.625,9.718h276.333
	c5.53,0,10.124-4.219,10.624-9.718c0.031-0.406,0.406-4.688,0.516-11.688H192.008z"/>
<g>
</g>
<g>
</g>
<g>
</g>
<g>
</g>
<g>
</g>
<g>
</g>
<g>
</g>
<g>
</g>
<g>
</g>
<g>
</g>
<g>
</g>
<g>
</g>
<g>
</g>
<g>
</g>
<g>
</g>
</svg>
