<?xml version="1.0" encoding="iso-8859-1"?>
<!-- Generator: Adobe Illustrator 19.0.0, SVG Export Plug-In . SVG Version: 6.00 Build 0)  -->
<svg version="1.1" id="Layer_1" xmlns="http://www.w3.org/2000/svg" xmlns:xlink="http://www.w3.org/1999/xlink" x="0px" y="0px"
	 viewBox="0 0 511.978 511.978" style="enable-background:new 0 0 511.978 511.978;" xml:space="preserve">
<path style="fill:#FFD2A6;" d="M282.64,31.998H175.988c-5.891,0-10.663,4.781-10.663,10.672v426.653
	c0,5.875,4.772,10.656,10.663,10.656H282.64c5.906,0,10.688-4.781,10.688-10.656V42.67C293.328,36.779,288.547,31.998,282.64,31.998
	z"/>
<g>
	<rect x="165.329" y="74.669" style="fill:#EAAD7A;" width="128" height="21.326"/>
	<rect x="165.329" y="117.329" style="fill:#EAAD7A;" width="128" height="21.335"/>
	<rect x="165.329" y="159.989" style="fill:#EAAD7A;" width="128" height="21.335"/>
	<rect x="165.329" y="202.659" style="fill:#EAAD7A;" width="128" height="21.327"/>
	<rect x="165.329" y="245.329" style="fill:#EAAD7A;" width="128" height="21.335"/>
	<rect x="165.329" y="287.989" style="fill:#EAAD7A;" width="128" height="21.344"/>
	<rect x="165.329" y="330.659" style="fill:#EAAD7A;" width="128" height="21.327"/>
	<rect x="165.329" y="373.329" style="fill:#EAAD7A;" width="128" height="21.327"/>
	<rect x="165.329" y="415.979" style="fill:#EAAD7A;" width="128" height="21.343"/>
</g>
<g>
	<path style="opacity:0.2;fill:#FFFFFF;enable-background:new    ;" d="M282.64,31.998h-10.656c5.891,0,10.656,4.781,10.656,10.672
		v426.653c0,5.875-4.766,10.656-10.656,10.656h10.656c5.906,0,10.688-4.781,10.688-10.656V42.67
		C293.328,36.779,288.547,31.998,282.64,31.998z"/>
	<path style="opacity:0.2;fill:#FFFFFF;enable-background:new    ;" d="M175.988,31.998h10.664c-5.891,0-10.664,4.781-10.664,10.672
		v426.653c0,5.875,4.773,10.656,10.664,10.656h-10.664c-5.891,0-10.663-4.781-10.663-10.656V42.67
		C165.325,36.779,170.097,31.998,175.988,31.998z"/>
</g>
<path style="fill:#E6E9ED;" d="M389.323,277.332c-5.906,0-10.687-4.781-10.687-10.672V42.67c0-5.891,4.78-10.672,10.687-10.672
	c5.875,0,10.656,4.781,10.656,10.672v223.99C399.979,272.551,395.198,277.332,389.323,277.332z"/>
<path style="fill:#EC5564;" d="M449.415,237.075c-2.469-2.023-5.719-2.836-8.859-2.211l-51.232,10.25l-51.248-10.25
	c-3.125-0.625-6.375,0.188-8.858,2.211c-2.469,2.031-3.891,5.055-3.891,8.25v42.662c0,3.203,1.422,6.219,3.891,8.25
	c2.483,2.031,5.733,2.844,8.858,2.219l51.248-10.25l51.232,10.25c0.703,0.125,1.391,0.203,2.078,0.203
	c2.453,0,4.844-0.844,6.781-2.422c2.469-2.031,3.906-5.047,3.906-8.25v-42.662C453.321,242.13,451.884,239.106,449.415,237.075z"/>
<path style="fill:#965353;" d="M389.323,458.653H69.329c-5.891,0-10.672,4.764-10.672,10.67v31.999
	c0,5.875,4.781,10.656,10.672,10.656h319.994c5.875,0,10.656-4.781,10.656-10.656v-31.999
	C399.979,463.417,395.198,458.653,389.323,458.653z"/>
<g>
	<path style="fill:#7F4545;" d="M357.325,490.65c-5.906,0-10.688,4.766-10.688,10.672v10.656h21.343v-10.656
		C367.98,495.416,363.2,490.65,357.325,490.65z"/>
	<path style="fill:#7F4545;" d="M314.639,490.65c-5.874,0-10.655,4.766-10.655,10.672v10.656h21.342v-10.656
		C325.326,495.416,320.546,490.65,314.639,490.65z"/>
	<path style="fill:#7F4545;" d="M271.984,490.65c-5.89,0-10.663,4.766-10.663,10.672v10.656h21.319v-10.656
		C282.64,495.416,277.875,490.65,271.984,490.65z"/>
	<path style="fill:#7F4545;" d="M229.322,490.65c-5.89,0-10.671,4.766-10.671,10.672v10.656h21.334v-10.656
		C239.985,495.416,235.213,490.65,229.322,490.65z"/>
	<path style="fill:#7F4545;" d="M186.652,490.65c-5.891,0-10.664,4.766-10.664,10.672v10.656h21.335v-10.656
		C197.323,495.416,192.543,490.65,186.652,490.65z"/>
	<path style="fill:#7F4545;" d="M143.99,490.65c-5.891,0-10.664,4.766-10.664,10.672v10.656h21.327v-10.656
		C154.653,495.416,149.881,490.65,143.99,490.65z"/>
	<path style="fill:#7F4545;" d="M101.327,490.65c-5.891,0-10.671,4.766-10.671,10.672v10.656h21.335v-10.656
		C111.991,495.416,107.218,490.65,101.327,490.65z"/>
</g>
<path style="fill:#965353;" d="M389.323,0H69.329c-5.891,0-10.672,4.78-10.672,10.671V42.67c0,5.891,4.781,10.663,10.672,10.663
	h319.994c5.875,0,10.656-4.772,10.656-10.663V10.671C399.979,4.78,395.198,0,389.323,0z"/>
<g>
</g>
<g>
</g>
<g>
</g>
<g>
</g>
<g>
</g>
<g>
</g>
<g>
</g>
<g>
</g>
<g>
</g>
<g>
</g>
<g>
</g>
<g>
</g>
<g>
</g>
<g>
</g>
<g>
</g>
</svg>
