<?xml version="1.0" encoding="iso-8859-1"?>
<!-- Generator: Adobe Illustrator 19.0.0, SVG Export Plug-In . SVG Version: 6.00 Build 0)  -->
<svg version="1.1" id="Layer_1" xmlns="http://www.w3.org/2000/svg" xmlns:xlink="http://www.w3.org/1999/xlink" x="0px" y="0px"
	 viewBox="0 0 512 512" style="enable-background:new 0 0 512 512;" xml:space="preserve">
<circle style="fill:#FFEDB5;" cx="256" cy="256" r="256"/>
<path style="fill:#FEE187;" d="M210.637,193.972L98.188,274.608l128.788,128.788l-13.246,12.317l91.533,91.532
	C423.074,484.278,512,380.533,512,256c0-1.11-0.028-2.214-0.041-3.32L401.499,142.222l-1.572,4.865l-26.888-26.888l-37.476,6.147
	l58.397,58.397l-25.135,77.774l-1.591-1.591l-17.272,28.507L220.069,159.539l-9.142,34.149L210.637,193.972z"/>
<path style="fill:#383636;" d="M175.364,211.178c0,0,119.153-82.747,189.833,0c51.66,60.481-15.022,160.103-54.65,209.337
	c-7.842,9.743-23.554,3.525-22.609-8.945l4.068-53.789c0,0-36.276,3.377-60.411-0.071l1.307,46.594
	c0.364,12.971-16.644,18.117-23.516,7.109c-23.769-38.078-57.199-95.035-65.289-126.278
	C131.205,235.365,175.364,211.178,175.364,211.178z"/>
<path style="fill:#272525;" d="M365.196,211.178c-31.692-37.102-73.125-40.924-109.196-33.861V359.25
	c18.673,0.141,36.004-1.47,36.004-1.47l-4.068,53.789c-0.943,12.471,14.769,18.689,22.609,8.945
	C350.174,371.281,416.858,271.66,365.196,211.178z"/>
<g>
	<polygon style="fill:#808183;" points="84.409,159.535 123.33,186.97 84.409,216.402 	"/>
	<polygon style="fill:#808183;" points="220.065,159.535 181.145,186.97 220.065,216.402 	"/>
</g>
<path style="fill:#59595B;" d="M224.177,230.705c0,36.752-32.208,66.544-71.94,66.544s-71.94-29.793-71.94-66.544
	s32.209-56.78,71.942-56.78S224.177,193.953,224.177,230.705z"/>
<g>
	<circle style="fill:#E09112;" cx="116.26" cy="234.848" r="7.88"/>
	<circle style="fill:#E09112;" cx="188.199" cy="234.848" r="7.88"/>
</g>
<g>
	<path style="fill:#272525;" d="M163.816,241.657l-8.845,11.366c-1.386,1.783-4.08,1.783-5.468,0l-8.845-11.366
		c-1.77-2.276-0.15-5.591,2.734-5.591h17.691C163.964,236.066,165.586,239.383,163.816,241.657z"/>
	<path style="fill:#272525;" d="M152.238,273.751c-1.903,0-3.448-1.545-3.448-3.448v-25.09c0-1.903,1.545-3.448,3.448-3.448
		c1.903,0,3.448,1.545,3.448,3.448v25.09C155.686,272.206,154.141,273.751,152.238,273.751z"/>
	<path style="fill:#272525;" d="M159.944,274.608h-15.413c-1.903,0-3.448-1.545-3.448-3.448s1.545-3.448,3.448-3.448h15.413
		c1.903,0,3.448,1.545,3.448,3.448S161.849,274.608,159.944,274.608z"/>
	<path style="fill:#272525;" d="M340.82,273.03c-2.767,0-5.485-1.329-7.151-3.796c-2.665-3.944-1.626-9.302,2.319-11.967
		c0.646-0.438,65.171-44.951,52.458-99.507c-2.655-11.386-7.844-19.516-15.42-24.162c-12.557-7.697-28.224-3.951-28.384-3.915
		c-4.599,1.143-9.285-1.657-10.443-6.259c-1.158-4.601,1.6-9.269,6.196-10.449c0.917-0.238,22.616-5.618,41.458,5.811
		c11.755,7.134,19.623,18.927,23.381,35.059c15.415,66.151-56.525,115.631-59.595,117.705
		C344.159,272.551,342.48,273.029,340.82,273.03z"/>
</g>
<g>
</g>
<g>
</g>
<g>
</g>
<g>
</g>
<g>
</g>
<g>
</g>
<g>
</g>
<g>
</g>
<g>
</g>
<g>
</g>
<g>
</g>
<g>
</g>
<g>
</g>
<g>
</g>
<g>
</g>
</svg>
